name ./resultDataOpenSim/trcMotMarkerGrf/sub09/grf-13-07.mot
datacolumns 19
datarows 10
range 0.96400000 1.00000000
endheader

                time	     ground_force_vx	     ground_force_vy	     ground_force_vz	     ground_force_px	     ground_force_py	     ground_force_pz	   l_ground_force_vx	   l_ground_force_vy	   l_ground_force_vz	   l_ground_force_px	   l_ground_force_py	   l_ground_force_pz	     ground_torque_x	     ground_torque_y	     ground_torque_z	   l_ground_torque_x	   l_ground_torque_y	   l_ground_torque_z	
          0.96400000	          0.00000000	          0.00000000	          0.00000000	          0.00000000	          0.00000000	          0.00000000	         -0.50026619	        396.66626090	         15.40918308	          0.16314284	         -0.05000000	         -0.01628974	          0.00000000	          0.00000000	          0.00000000	          0.00000000	         -0.67904459	          0.00000000	
          0.96800000	          0.00000000	          0.00000000	          0.00000000	          0.00000000	          0.00000000	          0.00000000	          1.37327913	        397.31349479	         16.03478669	          0.16363704	         -0.05000000	         -0.01612472	          0.00000000	          0.00000000	          0.00000000	          0.00000000	         -0.79996146	          0.00000000	
          0.97200000	          0.00000000	          0.00000000	          0.00000000	          0.00000000	          0.00000000	          0.00000000	          3.44075384	        398.32886500	         16.61097856	          0.16413863	         -0.05000000	         -0.01595429	          0.00000000	          0.00000000	          0.00000000	          0.00000000	         -0.94012318	          0.00000000	
          0.97600000	          0.00000000	          0.00000000	          0.00000000	          0.00000000	          0.00000000	          0.00000000	          5.76260525	        399.80880612	         17.06085146	          0.16464453	         -0.05000000	         -0.01577019	          0.00000000	          0.00000000	          0.00000000	          0.00000000	         -1.10593455	          0.00000000	
          0.98000000	          0.00000000	          0.00000000	          0.00000000	          0.00000000	          0.00000000	          0.00000000	          8.38438552	        401.82532229	         17.30687994	          0.16515880	         -0.05000000	         -0.01554532	          0.00000000	          0.00000000	          0.00000000	          0.00000000	         -1.30377618	          0.00000000	
          0.98400000	          0.00000000	          0.00000000	          0.00000000	          0.00000000	          0.00000000	          0.00000000	         11.33366185	        404.42243710	         17.29528322	          0.16570556	         -0.05000000	         -0.01525784	          0.00000000	          0.00000000	          0.00000000	          0.00000000	         -1.53863378	          0.00000000	
          0.98800000	          0.00000000	          0.00000000	          0.00000000	          0.00000000	          0.00000000	          0.00000000	         14.63563312	        407.61323762	         17.01249335	          0.16629882	         -0.05000000	         -0.01491536	          0.00000000	          0.00000000	          0.00000000	          0.00000000	         -1.81280235	          0.00000000	
          0.99200000	          0.00000000	          0.00000000	          0.00000000	          0.00000000	          0.00000000	          0.00000000	         18.31141912	        411.38353291	         16.47905434	          0.16690941	         -0.05000000	         -0.01455405	          0.00000000	          0.00000000	          0.00000000	          0.00000000	         -2.12519009	          0.00000000	
          0.99600000	          0.00000000	          0.00000000	          0.00000000	          0.00000000	          0.00000000	          0.00000000	         22.36001421	        415.71827288	         15.72717421	          0.16747841	         -0.05000003	         -0.01421766	          0.00000000	          0.00000000	          0.00000000	          0.00000000	         -2.47144331	          0.00000000	
          1.00000000	          0.00000000	          0.00000000	          0.00000000	          0.00000000	          0.00000000	          0.00000000	         26.74742101	        420.65460924	         14.78385494	          0.16794812	         -0.05000083	         -0.01393393	          0.00000000	          0.00000000	          0.00000000	          0.00000000	         -2.84470137	          0.00000000	
